<svg xmlns="http://www.w3.org/2000/svg" viewBox="0 0 238.71 238.65"><defs><style>.cls-1{fill:#fff;}</style></defs><title>colorpicker</title><g id="Lager_2" data-name="Lager 2"><g id="Lager_1-2" data-name="Lager 1"><path class="cls-1" d="M230.92,19.65,219.06,7.8a26.6,26.6,0,0,0-37.64,0L156.68,32.53l-18.3-18.3a12,12,0,0,0-17,0h0a12,12,0,0,0,0,17l13.35,13.35L9.3,170l5.24,14.68a9.84,9.84,0,0,1-2.3,10.21l-5.7,5.69A22.46,22.46,0,0,0,0,216.9a22.22,22.22,0,0,0,22.18,21.75,23,23,0,0,0,16.24-6.78l5.39-5.39a9.8,9.8,0,0,1,10.2-2.3l14.68,5.23L194.16,104l13.36,13.36a12,12,0,0,0,17-17L206.18,82l24.74-24.74A26.62,26.62,0,0,0,230.92,19.65Zm-82,109.78H69.69l70-70L179.31,99Z"/></g></g></svg>