<svg xmlns="http://www.w3.org/2000/svg" viewBox="0 0 127.07 105.23"><defs><style>.cls-1{fill:#fff;}</style></defs><title>palette</title><g id="Lager_2" data-name="Lager 2"><g id="Lager_1-2" data-name="Lager 1"><path class="cls-1" d="M121.82,24C110,9.52,89.54,0,66.33,0,29.7,0,0,23.73,0,53c0,24.91,21.5,45.8,50.48,51.48,11.88,2.32,24.32-.73,33.18-9,5.86-5.44,9.68-12.77,4.24-21.41a32.48,32.48,0,0,0-6.65-7.35C53.75,43.5,106,44.25,106,44.25s.77.07,2,.12C115,44.62,137.05,44,121.82,24ZM52.17,53.75a9.25,9.25,0,1,1,9.25-9.25A9.25,9.25,0,0,1,52.17,53.75Z"/></g></g></svg>