<svg xmlns="http://www.w3.org/2000/svg" viewBox="0 0 152.06 175.58"><defs><style>.cls-1{opacity:0.75;}.cls-2{fill:#fff;}.cls-3{opacity:0.5;}</style></defs><title>scrcad-cube-logo</title><g id="Lager_2" data-name="Lager 2"><g id="Lager_1-2" data-name="Lager 1"><g class="cls-1"><polygon class="cls-2" points="25.34 58.53 0 43.9 0 73.16 25.34 87.79 50.69 102.42 50.69 73.16 25.34 58.53"/><polygon class="cls-2" points="76.03 87.79 76.03 117.05 101.37 102.42 76.03 87.79"/><polygon class="cls-2" points="50.69 131.69 25.34 117.05 0 102.42 0 131.69 25.34 146.32 50.69 160.95 76.03 175.58 76.03 146.32 50.69 131.69"/><polygon class="cls-2" points="101.37 43.9 76.03 29.26 76.03 58.53 101.37 73.16 126.72 87.79 126.72 58.53 101.37 43.9"/></g><polygon class="cls-2" points="126.72 87.79 101.37 73.16 76.03 87.79 101.37 102.42 76.03 117.05 50.69 102.42 25.34 87.79 0 102.42 25.34 117.05 50.69 131.69 76.03 146.32 101.37 131.69 126.72 117.05 152.06 102.42 126.72 87.79"/><polygon class="cls-2" points="126.72 29.26 101.37 14.63 76.03 0 50.69 14.63 25.34 29.26 0 43.9 25.34 58.53 50.69 73.16 76.03 58.53 50.69 43.9 76.03 29.26 101.37 43.9 126.72 58.53 152.06 43.9 126.72 29.26"/><g class="cls-3"><polygon class="cls-2" points="50.69 43.9 76.03 58.53 76.03 29.26 50.69 43.9"/><polygon class="cls-2" points="50.69 102.42 50.69 73.16 76.03 58.53 76.03 87.79 50.69 102.42"/><polygon class="cls-2" points="126.72 117.05 101.37 131.69 76.03 146.32 76.03 175.58 101.37 160.95 126.72 146.32 152.06 131.69 152.06 102.42 126.72 117.05"/><polygon class="cls-2" points="126.72 87.79 126.72 58.53 152.06 43.9 152.06 73.16 126.72 87.79"/></g></g></g></svg>