<svg xmlns="http://www.w3.org/2000/svg" viewBox="0 0 97.33 97.33"><defs><style>.cls-1{fill:#fff;}</style></defs><title>selection</title><g id="Lager_2" data-name="Lager 2"><g id="Lager_1-2" data-name="Lager 1"><polygon class="cls-1" points="10 26.5 0 26.5 0 0 26.5 0 26.5 10 10 10 10 26.5"/><polygon class="cls-1" points="26.5 97.33 0 97.33 0 70.83 10 70.83 10 87.33 26.5 87.33 26.5 97.33"/><polygon class="cls-1" points="97.33 26.5 87.33 26.5 87.33 10 70.83 10 70.83 0 97.33 0 97.33 26.5"/><polygon class="cls-1" points="97.33 97.33 70.83 97.33 70.83 87.33 87.33 87.33 87.33 70.83 97.33 70.83 97.33 97.33"/><rect class="cls-1" x="38.17" width="21" height="10"/><rect class="cls-1" x="38.17" y="87.33" width="21" height="10"/><rect class="cls-1" y="38.17" width="10" height="21"/><rect class="cls-1" x="87.33" y="38.17" width="10" height="21"/></g></g></svg>